<svg width="52" height="52" viewBox="0 0 52 52" fill="none" xmlns="http://www.w3.org/2000/svg">
<path d="M3.884 1.28564H47.6742C49.1586 1.28564 50.4957 2.62277 50.4957 4.10714V47.8974C50.4957 49.3818 49.1586 50.7189 47.6742 50.7189H3.884C2.39962 50.7189 1.0625 49.3818 1.0625 47.8974V4.10714C1.0625 2.62277 2.39962 1.28564 3.884 1.28564ZM36.1674 29.0423H42.9955L43.2924 22.511H36.1674V17.6874C36.1674 15.8325 36.5379 14.7923 38.9129 14.7923H43.0691L43.2188 8.70515C43.2188 8.70515 41.3639 8.40827 38.692 8.40827C32.1608 8.40827 29.2656 12.4909 29.2656 16.8704V22.511H24.442V29.0423H29.2656V38.097V47.1516H36.1674V38.097V29.0423Z" fill="#D9D9D9"/>
<path fill-rule="evenodd" clip-rule="evenodd" d="M52 0H0V52H52V0ZM42.9955 29.0423H36.1674V38.097V47.1516H29.2656V38.097V29.0423H24.442V22.511H29.2656V16.8704C29.2656 12.4909 32.1608 8.40827 38.692 8.40827C41.3639 8.40827 43.2188 8.70515 43.2188 8.70515L43.0691 14.7923H38.9129C36.5379 14.7923 36.1674 15.8325 36.1674 17.6874V22.511H43.2924L42.9955 29.0423Z" fill="#D9D9D9"/>
</svg>
