<svg width="52" height="52" viewBox="0 0 52 52" fill="none" xmlns="http://www.w3.org/2000/svg">
<path d="M0.312003 6.7958V45.2364C0.312003 48.8648 3.16732 51.7202 6.79575 51.7202H45.2364C47.0123 51.7202 48.7092 50.8705 49.791 49.7911C50.9495 48.6327 51.7201 47.1655 51.7201 45.2364V6.7958C51.7201 3.16737 48.8648 0.312051 45.2364 0.312051H6.79575C4.86668 0.312051 3.3995 1.08516 2.24107 2.24112C1.15921 3.32298 0.312003 5.01987 0.312003 6.7958ZM7.26011 11.8889C7.26011 9.41894 9.26822 7.25769 11.7382 7.25769C14.2848 7.25769 16.3695 9.41894 16.3695 11.8889C16.3695 14.4355 14.2848 16.4436 11.7382 16.4436C9.26822 16.4436 7.26011 14.4355 7.26011 11.8889ZM19.6867 43.6136V20.0721C19.6867 19.5311 20.2276 19.0692 20.6129 19.0692H27.1733C28.0995 19.0692 28.0995 20.1511 28.0995 20.8452C29.952 18.9927 32.3454 18.5283 34.8154 18.5283C40.8373 18.5283 44.6954 21.3836 44.6954 27.7142V43.6161C44.6954 44.157 44.2311 44.6189 43.7692 44.6189H36.9767C36.4358 44.6189 36.0504 44.078 36.0504 43.6161V29.258C36.0504 26.8646 35.3564 25.553 32.6542 25.553C29.2579 25.553 28.4083 27.7908 28.4083 30.8017V43.6161C28.4083 44.157 27.8673 44.6189 27.3264 44.6189H20.6105C20.2251 44.6189 19.6842 44.078 19.6842 43.6161L19.6867 43.6136ZM7.41325 43.6136V20.0721C7.41325 19.5311 7.95418 19.0692 8.3395 19.0692H15.0554C15.6729 19.0692 16.0583 19.4546 16.0583 20.0721V43.6136C16.0583 44.1546 15.5939 44.6164 15.0554 44.6164H8.3395C7.87514 44.6164 7.41325 44.0755 7.41325 43.6136Z" fill="#D9D9D9"/>
<path fill-rule="evenodd" clip-rule="evenodd" d="M52 0H0V52H52V0ZM19.6867 20.0721V43.6136L19.6842 43.6161C19.6842 44.078 20.2251 44.6189 20.6105 44.6189H27.3264C27.8673 44.6189 28.4083 44.157 28.4083 43.6161V30.8017C28.4083 27.7908 29.2579 25.553 32.6542 25.553C35.3564 25.553 36.0504 26.8646 36.0504 29.258V43.6161C36.0504 44.078 36.4358 44.6189 36.9767 44.6189H43.7692C44.2311 44.6189 44.6954 44.157 44.6954 43.6161V27.7142C44.6954 21.3836 40.8373 18.5283 34.8154 18.5283C32.3454 18.5283 29.952 18.9927 28.0995 20.8452C28.0995 20.1511 28.0995 19.0692 27.1733 19.0692H20.6129C20.2276 19.0692 19.6867 19.5311 19.6867 20.0721ZM7.41325 43.6136V20.0721C7.41325 19.5311 7.95418 19.0692 8.3395 19.0692H15.0554C15.6729 19.0692 16.0583 19.4546 16.0583 20.0721V43.6136C16.0583 44.1546 15.5939 44.6164 15.0554 44.6164H8.3395C7.87514 44.6164 7.41325 44.0755 7.41325 43.6136ZM11.7382 7.25769C9.26822 7.25769 7.26011 9.41894 7.26011 11.8889C7.26011 14.4355 9.26822 16.4436 11.7382 16.4436C14.2848 16.4436 16.3695 14.4355 16.3695 11.8889C16.3695 9.41894 14.2848 7.25769 11.7382 7.25769Z" fill="#D9D9D9"/>
</svg>
