<svg width="76" height="87" viewBox="0 0 76 87" fill="none" xmlns="http://www.w3.org/2000/svg">
<g clip-path="url(#clip0_5_9)">
<path d="M14.6818 43.935H12.5227V46.11H14.6818V43.935Z" fill="#AE0000"/>
<path d="M16.8409 42.195H14.6818V44.37H16.8409V42.195Z" fill="#AE0000"/>
<path d="M16.8409 44.37H14.6818V48.285H16.8409V44.37Z" fill="#AE0000"/>
<path d="M9.93183 57.855H7.77274V60.465H9.93183V57.855Z" fill="#AE0000"/>
<path d="M12.5227 57.855H9.93182V60.465H12.5227V57.855Z" fill="#AE0000"/>
<path d="M16.8409 60.03H12.0909V64.38H16.8409V60.03Z" fill="#AE0000"/>
<path d="M19 61.335H15.9773V64.335H19V61.335Z" fill="#AE0000"/>
<path d="M12.0909 50.895H5.61363V53.07H12.0909V50.895Z" fill="#AE0000"/>
<path d="M19 43.935H16.8409V46.0778H19V43.935Z" fill="#AE0000"/>
<path d="M19 40.02H16.8409V42.63H19V40.02Z" fill="#AE0000"/>
<path d="M19 42.195H16.8409V44.37H19V42.195Z" fill="#AE0000"/>
<path d="M12.5227 43.935H10.3636V48.2207H12.5227V43.935Z" fill="black"/>
<path d="M10.3636 36.975H7.77274V46.4035H10.3636V36.975Z" fill="black"/>
<path d="M12.0909 57.855H9.93182V59.1407H12.0909V57.855Z" fill="white"/>
<path d="M16.8409 62.205H14.25V63.4907H16.8409V62.205Z" fill="white"/>
<path d="M3.88636 42.195H2.15909V46.545H3.88636V42.195Z" fill="white"/>
<path d="M5.61364 39.585H3.88637V41.76H5.61364V39.585Z" fill="white"/>
<path d="M7.77272 36.975H5.61363V39.585H7.77272V36.975Z" fill="white"/>
<path d="M14.6818 46.11H12.5227V48.2528H14.6818V46.11Z" fill="white"/>
<path d="M2.15909 46.545H0V50.895H2.15909V46.545Z" fill="#6B0000"/>
<path d="M3.88636 49.155H2.15909V50.895H3.88636V49.155Z" fill="#6B0000"/>
<path d="M5.61364 50.895H2.59091V53.07H5.61364V50.895Z" fill="#6B0000"/>
<path d="M14.6818 53.07H5.18182V55.68H14.6818V53.07Z" fill="#6B0000"/>
<path d="M12.0909 60.465H7.77274V62.64H12.0909V60.465Z" fill="#6B0000"/>
<path d="M12.0909 62.64H9.93182V64.3543H12.0909V62.64Z" fill="#6B0000"/>
<path d="M16.8409 64.38H12.0909V66.5229H16.8409V64.38Z" fill="#6B0000"/>
<path d="M14.6818 50.895H12.0909V53.07H14.6818V50.895Z" fill="#6B0000"/>
<path d="M16.8409 48.285H14.6818V50.8564H16.8409V48.285Z" fill="#6B0000"/>
<path d="M19 46.11H16.8409V48.285H19V46.11Z" fill="#6B0000"/>
<path d="M19 48.285H16.8409V53.07H19V48.285Z" fill="black"/>
<path d="M16.8409 50.895H14.6818V55.68H16.8409V50.895Z" fill="black"/>
<path d="M7.7727 41.76H3.88637V46.4743H7.7727V41.76Z" fill="#AE0000"/>
<path d="M10.3636 46.11H3.88637V50.895H10.3636V46.11Z" fill="#AE0000"/>
<path d="M14.6818 48.285H10.3636V50.895H14.6818V48.285Z" fill="#AE0000"/>
<path d="M2.15909 41.76H0V46.545H2.15909V41.76Z" fill="#AE0000"/>
<path d="M3.88636 46.11H2.15909V49.155H3.88636V46.11Z" fill="#AE0000"/>
<path d="M3.88634 39.585H2.15909V42.1564H3.88634V39.585Z" fill="#AE0000"/>
<path d="M3.88636 39.585H2.15909V42.195H3.88636V39.585Z" fill="#AE0000"/>
<path d="M5.61364 36.54H3.88637V39.585H5.61364V36.54Z" fill="#AE0000"/>
<path d="M11.6591 34.365H5.61363V36.975H11.6591V34.365Z" fill="#AE0000"/>
<path d="M7.77272 39.585H5.61363V41.76H7.77272V39.585Z" fill="#AE0000"/>
<path d="M2.59091 50.895H0V53.07H2.59091V50.895Z" fill="black"/>
<path d="M5.18182 53.07H2.59091V55.68H5.18182V53.07Z" fill="black"/>
<path d="M14.6818 55.68H5.18182V57.855H14.6818V55.68Z" fill="black"/>
<path d="M7.7727 57.855H5.18182V62.5693H7.7727V57.855Z" fill="black"/>
<path d="M9.9318 62.64H7.77274V64.7829H9.9318V62.64Z" fill="black"/>
<path d="M12.0909 64.38H9.93182V66.9514H12.0909V64.38Z" fill="black"/>
<path d="M14.6818 57.855H12.5227V59.9979H14.6818V57.855Z" fill="black"/>
<path d="M19 64.38H16.8409V68.6657H19V64.38Z" fill="black"/>
<path d="M17.7045 66.555H12.0909V68.6978H17.7045V66.555Z" fill="black"/>
<path d="M23.3182 60.03H20.7273V69.165H23.3182V60.03Z" fill="#6B0000"/>
<path d="M25.4773 66.99H23.3182V71.34H25.4773V66.99Z" fill="#6B0000"/>
<path d="M27.6363 69.165H25.4773V73.4507H27.6363V69.165Z" fill="#6B0000"/>
<path d="M22.8864 73.08H20.7273V75.69H22.8864V73.08Z" fill="#6B0000"/>
<path d="M27.2045 75.69H22.8864V77.865H27.2045V75.69Z" fill="#6B0000"/>
<path d="M29.7955 71.34H27.6364V75.69H29.7955V71.34Z" fill="#6B0000"/>
<path d="M46.2045 73.08H29.7955V75.69H46.2045V73.08Z" fill="#6B0000"/>
<path d="M48.3636 71.34H43.6136V73.4828H48.3636V71.34Z" fill="#6B0000"/>
<path d="M54.8409 66.99H50.5227V69.165H54.8409V66.99Z" fill="#6B0000"/>
<path d="M54.8409 63.945H52.6818V67.3736H54.8409V63.945Z" fill="#6B0000"/>
<path d="M52.6818 69.165H45.7727V71.3078H52.6818V69.165Z" fill="#6B0000"/>
<path d="M20.7273 60.03H18.5682V73.08H20.7273V60.03Z" fill="black"/>
<path d="M25.4773 55.68H22.8864V57.855H25.4773V55.68Z" fill="black"/>
<path d="M29.7955 50.895H27.2045V57.855H29.7955V50.895Z" fill="black"/>
<path d="M46.6364 50.895H44.0455V57.855H46.6364V50.895Z" fill="black"/>
<path d="M28.5 43.5H25.0455V51.33H28.5V43.5Z" fill="black"/>
<path d="M32.3864 43.5H30.6591V51.33H32.3864V43.5Z" fill="black"/>
<path d="M30.6591 46.98H28.5V51.33H30.6591V46.98Z" fill="black"/>
<path d="M30.6591 43.5H28.5V45.2143H30.6591V43.5Z" fill="black"/>
<path d="M44.9091 43.5H41.4545V51.33H44.9091V43.5Z" fill="black"/>
<path d="M48.7954 43.5H47.0682V51.2142H48.7954V43.5Z" fill="black"/>
<path d="M48.7954 43.5H47.0682V51.33H48.7954V43.5Z" fill="black"/>
<path d="M47.0682 46.98H44.9091V51.33H47.0682V46.98Z" fill="black"/>
<path d="M47.0682 43.5H44.9091V45.2143H47.0682V43.5Z" fill="black"/>
<path d="M23.3181 57.855H20.7273V59.9979H23.3181V57.855Z" fill="black"/>
<path d="M23.3182 69.165H20.7273V73.08H23.3182V69.165Z" fill="black"/>
<path d="M23.3182 69.165H20.7273V73.08H23.3182V69.165Z" fill="black"/>
<path d="M52.6818 71.34H48.3636V76.0543H52.6818V71.34Z" fill="black"/>
<path d="M48.3636 73.08H45.7727V77.7943H48.3636V73.08Z" fill="black"/>
<path d="M48.3636 73.08H45.7727V77.865H48.3636V73.08Z" fill="black"/>
<path d="M54.8409 75.69H50.5227V77.865H54.8409V75.69Z" fill="black"/>
<path d="M25.4773 71.34H22.8864V76.0543H25.4773V71.34Z" fill="black"/>
<path d="M27.6364 73.08H25.4773V75.69H27.6364V73.08Z" fill="black"/>
<path d="M48.3636 57.855H23.3182V67.425H48.3636V57.855Z" fill="#AE0000"/>
<path d="M50.5227 67.425H25.4773V69.165H50.5227V67.425Z" fill="#AE0000"/>
<path d="M45.7727 69.165H27.6364V71.34H45.7727V69.165Z" fill="#AE0000"/>
<path d="M50.5227 60.03H48.3636V67.425H50.5227V60.03Z" fill="#AE0000"/>
<path d="M52.6818 57.855H50.5227V66.99H52.6818V57.855Z" fill="#AE0000"/>
<path d="M54.8409 60.03H52.6818V63.945H54.8409V60.03Z" fill="#AE0000"/>
<path d="M34.5455 55.68H33.6818V57.855H34.5455V55.68Z" fill="#AE0000"/>
<path d="M44.0455 53.505H29.7955V55.68H44.0455V53.505Z" fill="#AE0000"/>
<path d="M31.5227 55.68H29.7955V57.855H31.5227V55.68Z" fill="#AE0000"/>
<path d="M50.5227 55.68H46.6364V57.855H50.5227V55.68Z" fill="#AE0000"/>
<path d="M27.2045 55.68H25.4773V57.855H27.2045V55.68Z" fill="#AE0000"/>
<path d="M43.6135 71.34H29.7955V73.4828H43.6135V71.34Z" fill="#AE0000"/>
<path d="M50.5227 57.855H48.3636V60.03H50.5227V57.855Z" fill="white"/>
<path d="M52.6818 62.205H50.5227V64.3479H52.6818V62.205Z" fill="white"/>
<path d="M30.6591 44.805H28.5V46.9478H30.6591V44.805Z" fill="white"/>
<path d="M33.6818 55.68H31.5227V57.855H33.6818V55.68Z" fill="white"/>
<path d="M47.0682 44.805H44.9091V46.9478H47.0682V44.805Z" fill="white"/>
<path d="M44.0455 55.68H34.5455V57.855H44.0455V55.68Z" fill="white"/>
<path d="M54.8409 69.165H52.6818V73.8792H54.8409V69.165Z" fill="black"/>
<path d="M45.7727 75.69H27.2045V77.865H45.7727V75.69Z" fill="black"/>
<path d="M50.5227 75.69H48.3636V77.865H50.5227V75.69Z" fill="#6B0000"/>
<path d="M21.1591 75.69H19V80.04H21.1591V75.69Z" fill="black"/>
<path d="M22.8863 75.69H21.1591V77.8328H22.8863V75.69Z" fill="black"/>
<path d="M54.8409 73.515H52.6818V75.69H54.8409V73.515Z" fill="#6B0000"/>
<path d="M68.2272 46.11H66.0682V52.9671H68.2272V46.11Z" fill="#AE0000"/>
<path d="M61.3182 48.285H59.1591V41.8565H61.3182V48.285Z" fill="#AE0000"/>
<path d="M70.3863 39.585H68.2273V51.1563H70.3863V39.585Z" fill="#AE0000"/>
<path d="M68.2273 46.11H66.0682V53.07H68.2273V46.11Z" fill="#AE0000"/>
<path d="M72.1136 41.76H69.9545V51.1885H72.1136V41.76Z" fill="#AE0000"/>
<path d="M76 41.76H73.8409V47.76H76V41.76Z" fill="#AE0000"/>
<path d="M74.2727 39.585H72.1136V42.195H74.2727V39.585Z" fill="#AE0000"/>
<path d="M72.1136 36.975H70.3864V39.585H72.1136V36.975Z" fill="#AE0000"/>
<path d="M73.8409 46.11H72.1136V48.72H73.8409V46.11Z" fill="#AE0000"/>
<path d="M68.2272 57.42H63.4773V59.9914H68.2272V57.42Z" fill="#AE0000"/>
<path d="M63.4772 59.595H61.3182V61.7378H63.4772V59.595Z" fill="#AE0000"/>
<path d="M61.3182 61.335H57V64.38H61.3182V61.335Z" fill="#AE0000"/>
<path d="M63.4773 59.595H61.3182V61.77H63.4773V59.595Z" fill="#AE0000"/>
<path d="M69.9545 50.895H67.7955V53.07H69.9545V50.895Z" fill="#AE0000"/>
<path d="M63.4772 43.935H61.3182V48.6493H63.4772V43.935Z" fill="#AE0000"/>
<path d="M66.0682 48.72H63.4773V50.895H66.0682V48.72Z" fill="#AE0000"/>
<path d="M63.4773 48.285H61.3182V50.46H63.4773V48.285Z" fill="#6B0000"/>
<path d="M66.0682 50.895H63.4773V55.245H66.0682V50.895Z" fill="#6B0000"/>
<path d="M70.8182 53.07H66.0682V55.245H70.8182V53.07Z" fill="#6B0000"/>
<path d="M73.4091 50.895H69.9545V53.07H73.4091V50.895Z" fill="#6B0000"/>
<path d="M76 48.72H72.1136V50.895H76V48.72Z" fill="#6B0000"/>
<path d="M76 47.415H73.8409V48.7007H76V47.415Z" fill="#6B0000"/>
<path d="M76 50.895H73.4091V53.07H76V50.895Z" fill="black"/>
<path d="M63.4773 50.46H61.3182V55.68H63.4773V50.46Z" fill="black"/>
<path d="M72.9773 53.07H70.8182V55.245H72.9773V53.07Z" fill="black"/>
<path d="M70.8181 55.245H63.4773V57.3878H70.8181V55.245Z" fill="black"/>
<path d="M70.8182 55.245H63.4773V57.42H70.8182V55.245Z" fill="black"/>
<path d="M63.4773 59.595H61.3182V57.42H63.4773V59.595Z" fill="black"/>
<path d="M70.8182 57.42H68.2273V62.64H70.8182V57.42Z" fill="black"/>
<path d="M68.2273 60.03H65.6364V62.64H68.2273V60.03Z" fill="black"/>
<path d="M66.0682 62.64H63.4773V65.25H66.0682V62.64Z" fill="black"/>
<path d="M57 61.335H54.8409V63.51H57V61.335Z" fill="black"/>
<path d="M57 63.51H54.8409V65.685H57V63.51Z" fill="black"/>
<path d="M57 65.685H54.8409V67.8278H57V65.685Z" fill="black"/>
<path d="M57 66.99H54.8409V69.1328H57V66.99Z" fill="black"/>
<path d="M59.1591 66.99H57V69.1328H59.1591V66.99Z" fill="black"/>
<path d="M61.3182 66.99H59.1591V69.1328H61.3182V66.99Z" fill="black"/>
<path d="M63.4772 67.86H61.3182V69.1457H63.4772V67.86Z" fill="black"/>
<path d="M63.4772 65.25H61.3182V67.3928H63.4772V65.25Z" fill="black"/>
<path d="M63.4772 66.12H61.3182V68.2628H63.4772V66.12Z" fill="black"/>
<path d="M57 65.685H54.8409V67.8278H57V65.685Z" fill="black"/>
<path d="M57 65.685H54.8409V67.8278H57V65.685Z" fill="black"/>
<path d="M66.0682 43.935H63.4773V46.11H66.0682V43.935Z" fill="black"/>
<path d="M66.0682 46.11H63.4773V48.72H66.0682V46.11Z" fill="black"/>
<path d="M61.3182 48.285H59.1591V52.635H61.3182V48.285Z" fill="black"/>
<path d="M59.1591 48.285H57V50.46H59.1591V48.285Z" fill="black"/>
<path d="M63.4773 46.11H61.3182V48.285H63.4773V46.11Z" fill="white"/>
<path d="M67.3636 57.42H65.2045V58.7057H67.3636V57.42Z" fill="white"/>
<path d="M60.8863 43.5H58.7273V46.0714H60.8863V43.5Z" fill="white"/>
<path d="M70.3864 37.41H68.2273V39.585H70.3864V37.41Z" fill="white"/>
<path d="M72.1136 39.585H70.3864V41.76H72.1136V39.585Z" fill="white"/>
<path d="M73.8409 42.195H72.1136V46.4807H73.8409V42.195Z" fill="white"/>
<path d="M59.1591 43.935H57V46.11H59.1591V43.935Z" fill="#AE0000"/>
<path d="M59.1591 42.63H57V44.3443H59.1591V42.63Z" fill="#AE0000"/>
<path d="M61.3182 40.02H59.1591V42.1628H61.3182V40.02Z" fill="#AE0000"/>
<path d="M61.3182 40.02H59.1591V42.195H61.3182V40.02Z" fill="#AE0000"/>
<path d="M59.1591 46.11H57V48.285H59.1591V46.11Z" fill="#6B0000"/>
<path d="M61.3182 48.285H59.1591V50.46H61.3182V48.285Z" fill="#6B0000"/>
<path d="M61.3182 64.38H57V66.99H61.3182V64.38Z" fill="#6B0000"/>
<path d="M63.4773 61.77H61.3182V65.25H63.4773V61.77Z" fill="#6B0000"/>
<path d="M65.6364 60.03H63.4773V62.64H65.6364V60.03Z" fill="#6B0000"/>
<path d="M68.2272 37.41H66.0682V46.4099H68.2272V37.41Z" fill="black"/>
<path d="M70.3864 34.8H64.7727V37.41H70.3864V34.8Z" fill="#AE0000"/>
<path d="M64.7727 0H63.4773V16.965H64.7727V0Z" fill="#F3FF51"/>
<path d="M55.2727 3.04501H53.9773V16.965H55.2727V3.04501Z" fill="#F3FF51"/>
<path d="M72.5455 16.965H55.2727V18.27H72.5455V16.965Z" fill="#F3FF51"/>
<path d="M53.9773 7.82999H52.6818V9.11569H53.9773V7.82999Z" fill="#3FCB93"/>
<path d="M53.9773 7.82999H52.6818V9.11569H53.9773V7.82999Z" fill="#58A888"/>
<path d="M53.9773 7.82999H52.6818V9.11569H53.9773V7.82999Z" fill="#58A888"/>
<path d="M53.9773 7.82999H52.6818V9.13499H53.9773V7.82999Z" fill="#E1E97A"/>
<path d="M53.9773 7.82999H52.6818V9.13499H53.9773V7.82999Z" fill="#E1E97A"/>
<path d="M72.5454 7.82999H71.25V9.11569H72.5454V7.82999Z" fill="#E1E97A"/>
<path d="M72.5454 7.82999H71.25V9.11569H72.5454V7.82999Z" fill="#E1E97A"/>
<path d="M63.4773 5.22H62.1818V6.525H63.4773V5.22Z" fill="#E1E97A"/>
<path d="M63.4773 5.22H62.1818V6.525H63.4773V5.22Z" fill="#E1E97A"/>
<path d="M56.5682 7.82999H55.2727V9.13499H56.5682V7.82999Z" fill="#F3FF51"/>
<path d="M75.1364 7.82999H73.8409V9.13499H75.1364V7.82999Z" fill="#F3FF51"/>
<path d="M66.0682 5.22H64.7727V6.525H66.0682V5.22Z" fill="#F3FF51"/>
<path d="M73.8409 2.60999H72.5455V16.965H73.8409V2.60999Z" fill="#F3FF51"/>
<path d="M63.4773 22.185H61.3182V21.315H63.4773V22.185Z" fill="#CF8E16"/>
<path d="M64.7727 21.315H63.0455V18.315H64.7727V21.315Z" fill="#174331"/>
<path d="M64.7727 21.315H63.0455V18.315H64.7727V21.315Z" fill="#174331"/>
<path d="M64.7727 21.315H63.0455V18.27H64.7727V21.315Z" fill="#CF8E16"/>
<path d="M72.5455 19.575H64.7727V18.27H72.5455V19.575Z" fill="black"/>
<path d="M61.3182 19.575H55.2727V18.27H61.3182V19.575Z" fill="black"/>
<path d="M55.2727 18.27H53.9773V16.965H55.2727V18.27Z" fill="black"/>
<path d="M53.9773 16.965H52.6818V8.7H53.9773V16.965Z" fill="black"/>
<path d="M52.6818 10.44H51.3864V7.83H52.6818V10.44Z" fill="black"/>
<path d="M53.9773 7.82999H52.6818V4.78499H53.9773V7.82999Z" fill="black"/>
<path d="M63.4773 16.965H62.1818V6.25077H63.4773V16.965Z" fill="#174331"/>
<path d="M63.4773 16.965H62.1818V6.09H63.4773V16.965Z" fill="black"/>
<path d="M63.4773 5.22H62.1818V1.305H63.4773V5.22Z" fill="black"/>
<path d="M72.5455 16.965H71.25V8.7H72.5455V16.965Z" fill="black"/>
<path d="M71.25 10.44H69.9545V7.83H71.25V10.44Z" fill="black"/>
<path d="M66.0682 7.82999H64.7727V6.54428H66.0682V7.82999Z" fill="#174331"/>
<path d="M75.1364 10.44H73.8409V9.135H75.1364V10.44Z" fill="black"/>
<path d="M66.0682 7.82999H64.7727V6.52499H66.0682V7.82999Z" fill="black"/>
<path d="M62.1818 7.82999H60.8864V6.54428H62.1818V7.82999Z" fill="#174331"/>
<path d="M62.1818 7.82999H60.8864V6.52499H62.1818V7.82999Z" fill="black"/>
<path d="M62.1818 6.52499H60.8864V5.21999H62.1818V6.52499Z" fill="black"/>
<path d="M72.5455 7.82999H71.25V4.34999H72.5455V7.82999Z" fill="black"/>
<path d="M73.8409 18.27H72.5455V16.965H73.8409V18.27Z" fill="black"/>
<path d="M20.7273 73.08H14.6818V75.69H20.7273V73.08Z" fill="#AE0000"/>
<path d="M19 75.69H14.6818V77.865H19V75.69Z" fill="#AE0000"/>
<path d="M18.5682 73.08H16.8409V74.3657H18.5682V73.08Z" fill="white"/>
<path d="M16.4091 75.255H14.6818V76.56H16.4091V75.255Z" fill="white"/>
<path d="M18.5682 73.08H16.8409V74.385H18.5682V73.08Z" fill="white"/>
<path d="M19 80.04H16.8409V86.8971H19V80.04Z" fill="black"/>
<path d="M19 80.04H16.8409V87H19V80.04Z" fill="black"/>
<path d="M27.2045 77.865H25.0455V87H27.2045V77.865Z" fill="black"/>
<path d="M28.5 77.865H27.2045V80.04H28.5V77.865Z" fill="black"/>
<path d="M25.0455 77.865H22.8864V84.825H25.0455V77.865Z" fill="#6B0000"/>
<path d="M14.6818 75.255H12.5227V82.215H14.6818V75.255Z" fill="#6B0000"/>
<path d="M16.8409 80.04H14.6818V85.26H16.8409V80.04Z" fill="#6B0000"/>
<path d="M19 77.865H16.8409V80.04H19V77.865Z" fill="#6B0000"/>
<path d="M16.8409 80.04H14.6818V76.56H16.8409V80.04Z" fill="#AE0000"/>
<path d="M18.5682 71.34H16.8409V73.08H18.5682V71.34Z" fill="black"/>
<path d="M59.1591 73.08H54.8409V75.69H59.1591V73.08Z" fill="#AE0000"/>
<path d="M61.3182 75.255H57V77.865H61.3182V75.255Z" fill="#AE0000"/>
<path d="M61.3182 76.995H59.1591V79.605H61.3182V76.995Z" fill="#AE0000"/>
<path d="M57 73.08H55.2727V74.3657H57V73.08Z" fill="white"/>
<path d="M58.7273 75.255H57V76.5407H58.7273V75.255Z" fill="white"/>
<path d="M59.1591 77.865H57V84.7221H59.1591V77.865Z" fill="#6B0000"/>
<path d="M59.1591 77.865H57V84.7221H59.1591V77.865Z" fill="#6B0000"/>
<path d="M59.1591 77.865H57V84.825H59.1591V77.865Z" fill="#6B0000"/>
<path d="M61.3182 79.605H59.1591V82.65H61.3182V79.605Z" fill="#6B0000"/>
<path d="M48.3636 77.865H45.3409V80.04H48.3636V77.865Z" fill="black"/>
<path d="M48.3636 80.04H46.2045V86.8971H48.3636V80.04Z" fill="black"/>
<path d="M48.3636 80.04H46.2045V87H48.3636V80.04Z" fill="black"/>
<path d="M57 77.865H52.6818V80.04H57V77.865Z" fill="black"/>
<path d="M57 80.04H54.8409V87H57V80.04Z" fill="black"/>
<path d="M57 75.69H54.8409V77.865H57V75.69Z" fill="#6B0000"/>
<path d="M50.5227 77.865H48.3636V84.7221H50.5227V77.865Z" fill="#6B0000"/>
<path d="M50.5227 77.865H48.3636V84.825H50.5227V77.865Z" fill="#6B0000"/>
<path d="M57 71.34H54.8409V73.4828H57V71.34Z" fill="black"/>
<path d="M63.4773 21.315H66.0682V22.185H63.4773V21.315Z" fill="#F3FF51"/>
<path d="M65.2045 22.62H63.9091V87H65.2045V22.62Z" fill="#F3FF51"/>
<path d="M63.9091 22.62H61.3182V87H63.9091V22.62Z" fill="black"/>
<path d="M61.3182 22.185H66.0682V23.925H61.3182V22.185Z" fill="black"/>
<path d="M61.3182 18.27H63.0455V21.315H61.3182V18.27Z" fill="black"/>
</g>
<defs>
<clipPath id="clip0_5_9">
<rect width="76" height="87" fill="white"/>
</clipPath>
</defs>
</svg>
