<svg width="62" height="62" viewBox="0 0 62 62" fill="none" xmlns="http://www.w3.org/2000/svg">
<path d="M27.9013 12.3997H15.5013V15.4997H12.4013V27.8997H15.5013V30.9997H27.9013V27.8997H31.0013V15.4997H27.9013V12.3997ZM24.8013 24.7997H18.6013V18.5997H24.8013V24.7997Z" fill="#5B5C5D"/>
<path d="M58.9 3.1V0H3.1V3.1H0V58.9H3.1V62H58.9V58.9H62V3.1H58.9ZM55.8 37.2H52.7V34.1H49.6V31H46.5V27.9H37.2V31H34.1V34.1H31V37.2H27.9V40.3H24.8V43.4H21.7V46.5H18.6V49.6H15.5V52.7H12.4V55.8H9.30001V52.7H6.2V9.30001H9.30001V6.2H52.7V9.30001H55.8V37.2ZM55.8 52.7H52.7V55.8H21.7V52.7H24.8V49.6H27.9V46.5H31V43.4H34.1V40.3H37.2V37.2H40.3V34.1H43.4V37.2H46.5V40.3H49.6V43.4H52.7V46.5H55.8V52.7Z" fill="#5B5C5D"/>
</svg>
